G04*
G04 #@! TF.GenerationSoftware,Altium Limited,Altium Designer,23.7.1 (13)*
G04*
G04 Layer_Color=8388736*
%FSLAX25Y25*%
%MOIN*%
G70*
G04*
G04 #@! TF.SameCoordinates,19F5D0B9-5710-4248-B450-38BAA5BA0137*
G04*
G04*
G04 #@! TF.FilePolarity,Negative*
G04*
G01*
G75*
%ADD23R,0.06516X0.06016*%
%ADD24R,0.04331X0.05118*%
%ADD25R,0.03950X0.04343*%
%ADD26R,0.06016X0.06516*%
%ADD27R,0.03950X0.02965*%
%ADD28R,0.06312X0.06312*%
%ADD29R,0.06300X0.09500*%
%ADD30R,0.05118X0.04331*%
%ADD31R,0.08661X0.08661*%
%ADD32C,0.08661*%
%ADD33R,0.08661X0.08661*%
%ADD34C,0.03162*%
%ADD35C,0.05800*%
G36*
X22698Y36838D02*
X22749Y36828D01*
X22799Y36811D01*
X22846Y36788D01*
X22890Y36759D01*
X22929Y36724D01*
X22964Y36685D01*
X22993Y36641D01*
X23016Y36594D01*
X23033Y36545D01*
X23043Y36493D01*
X23046Y36441D01*
Y31716D01*
X23046Y31711D01*
X23046Y31706D01*
X23044Y31685D01*
X23043Y31664D01*
X23042Y31659D01*
X23042Y31653D01*
X23037Y31633D01*
X23033Y31613D01*
X23031Y31608D01*
X23030Y31602D01*
X23023Y31583D01*
X23016Y31563D01*
X23014Y31558D01*
X23012Y31553D01*
X23002Y31535D01*
X22993Y31516D01*
X22990Y31512D01*
X22987Y31507D01*
X22975Y31490D01*
X22964Y31473D01*
X22960Y31468D01*
X22957Y31464D01*
X22943Y31449D01*
X22929Y31433D01*
X22925Y31429D01*
X22921Y31425D01*
X19181Y27882D01*
X19165Y27869D01*
X19150Y27855D01*
X19145Y27852D01*
X19141Y27849D01*
X19123Y27838D01*
X19106Y27826D01*
X19101Y27824D01*
X19096Y27821D01*
X19078Y27812D01*
X19059Y27803D01*
X19054Y27801D01*
X19049Y27799D01*
X19029Y27793D01*
X19009Y27786D01*
X19004Y27785D01*
X18999Y27783D01*
X18978Y27780D01*
X18958Y27776D01*
X18952Y27775D01*
X18947Y27775D01*
X18926Y27774D01*
X18905Y27772D01*
X7095D01*
X7074Y27774D01*
X7053Y27775D01*
X7048Y27775D01*
X7042Y27776D01*
X7022Y27780D01*
X7001Y27783D01*
X6996Y27785D01*
X6991Y27786D01*
X6971Y27793D01*
X6951Y27799D01*
X6946Y27801D01*
X6941Y27803D01*
X6922Y27812D01*
X6904Y27821D01*
X6899Y27824D01*
X6894Y27826D01*
X6877Y27838D01*
X6859Y27849D01*
X6855Y27852D01*
X6850Y27855D01*
X6835Y27869D01*
X6819Y27882D01*
X3079Y31425D01*
X3075Y31429D01*
X3071Y31433D01*
X3057Y31449D01*
X3043Y31464D01*
X3040Y31468D01*
X3036Y31473D01*
X3025Y31490D01*
X3013Y31507D01*
X3010Y31512D01*
X3007Y31516D01*
X2998Y31535D01*
X2988Y31553D01*
X2986Y31558D01*
X2984Y31563D01*
X2977Y31583D01*
X2970Y31602D01*
X2969Y31608D01*
X2967Y31613D01*
X2963Y31633D01*
X2959Y31653D01*
X2958Y31659D01*
X2957Y31664D01*
X2956Y31685D01*
X2954Y31706D01*
X2954Y31711D01*
X2953Y31716D01*
Y36441D01*
X2957Y36493D01*
X2967Y36545D01*
X2984Y36594D01*
X3007Y36641D01*
X3036Y36685D01*
X3071Y36724D01*
X3110Y36759D01*
X3154Y36788D01*
X3201Y36811D01*
X3251Y36828D01*
X3302Y36838D01*
X3354Y36842D01*
X22646D01*
X22698Y36838D01*
D02*
G37*
G36*
X18926Y50226D02*
X18947Y50226D01*
X18952Y50225D01*
X18958Y50224D01*
X18978Y50220D01*
X18999Y50217D01*
X19004Y50215D01*
X19009Y50214D01*
X19029Y50207D01*
X19049Y50201D01*
X19054Y50199D01*
X19059Y50197D01*
X19078Y50188D01*
X19096Y50179D01*
X19101Y50176D01*
X19106Y50174D01*
X19123Y50162D01*
X19141Y50151D01*
X19145Y50148D01*
X19150Y50145D01*
X19165Y50131D01*
X19181Y50118D01*
X22921Y46575D01*
X22925Y46571D01*
X22929Y46567D01*
X22943Y46551D01*
X22957Y46536D01*
X22960Y46532D01*
X22964Y46527D01*
X22975Y46510D01*
X22987Y46493D01*
X22990Y46488D01*
X22993Y46484D01*
X23002Y46465D01*
X23012Y46447D01*
X23014Y46442D01*
X23016Y46437D01*
X23023Y46417D01*
X23030Y46398D01*
X23031Y46392D01*
X23033Y46387D01*
X23037Y46367D01*
X23042Y46347D01*
X23042Y46341D01*
X23043Y46336D01*
X23044Y46315D01*
X23046Y46294D01*
X23046Y46289D01*
X23046Y46284D01*
Y41559D01*
X23043Y41507D01*
X23033Y41455D01*
X23016Y41406D01*
X22993Y41359D01*
X22964Y41315D01*
X22929Y41276D01*
X22890Y41241D01*
X22846Y41212D01*
X22799Y41189D01*
X22749Y41172D01*
X22698Y41162D01*
X22646Y41158D01*
X3354D01*
X3302Y41162D01*
X3251Y41172D01*
X3201Y41189D01*
X3154Y41212D01*
X3110Y41241D01*
X3071Y41276D01*
X3036Y41315D01*
X3007Y41359D01*
X2984Y41406D01*
X2967Y41455D01*
X2957Y41507D01*
X2953Y41559D01*
Y46284D01*
X2954Y46289D01*
X2954Y46294D01*
X2956Y46315D01*
X2957Y46336D01*
X2958Y46341D01*
X2959Y46347D01*
X2963Y46367D01*
X2967Y46387D01*
X2969Y46392D01*
X2970Y46398D01*
X2977Y46417D01*
X2984Y46437D01*
X2986Y46442D01*
X2988Y46447D01*
X2998Y46465D01*
X3007Y46484D01*
X3010Y46488D01*
X3013Y46493D01*
X3025Y46510D01*
X3036Y46527D01*
X3040Y46532D01*
X3043Y46536D01*
X3057Y46551D01*
X3071Y46567D01*
X3075Y46571D01*
X3079Y46575D01*
X6819Y50118D01*
X6835Y50131D01*
X6850Y50145D01*
X6855Y50148D01*
X6859Y50151D01*
X6877Y50162D01*
X6894Y50174D01*
X6899Y50176D01*
X6904Y50179D01*
X6922Y50188D01*
X6941Y50197D01*
X6946Y50199D01*
X6951Y50201D01*
X6971Y50207D01*
X6991Y50214D01*
X6996Y50215D01*
X7001Y50217D01*
X7022Y50220D01*
X7042Y50224D01*
X7048Y50225D01*
X7053Y50226D01*
X7074Y50226D01*
X7095Y50228D01*
X18905D01*
X18926Y50226D01*
D02*
G37*
D23*
X39701Y47000D02*
D03*
X33000D02*
D03*
X39500Y58000D02*
D03*
X32799D02*
D03*
X25984Y94390D02*
D03*
X19284D02*
D03*
X89969Y46457D02*
D03*
X83268D02*
D03*
X89969Y36614D02*
D03*
X83268D02*
D03*
X89969Y96752D02*
D03*
X83268D02*
D03*
X89969Y106595D02*
D03*
X83268D02*
D03*
Y68405D02*
D03*
X89969D02*
D03*
Y78248D02*
D03*
X83268D02*
D03*
D24*
X56657Y92563D02*
D03*
X64138D02*
D03*
X60398Y100516D02*
D03*
X56728Y28547D02*
D03*
X64208D02*
D03*
X60468Y36500D02*
D03*
D25*
X56679Y72878D02*
D03*
X64159D02*
D03*
X60419Y80752D02*
D03*
X56679Y48563D02*
D03*
X64159D02*
D03*
X60419Y56437D02*
D03*
D26*
X63842Y8500D02*
D03*
Y15201D02*
D03*
X54000Y8500D02*
D03*
Y15201D02*
D03*
D27*
X7346Y82000D02*
D03*
X15653D02*
D03*
D28*
X13000Y44315D02*
D03*
Y33685D02*
D03*
D29*
X34500Y82050D02*
D03*
Y70950D02*
D03*
D30*
X16000Y61260D02*
D03*
Y68740D02*
D03*
X8047Y65000D02*
D03*
D31*
X109610Y9000D02*
D03*
X8500Y109110D02*
D03*
X109500Y44055D02*
D03*
D32*
X18500Y9000D02*
D03*
X109500Y74055D02*
D03*
Y64055D02*
D03*
Y54055D02*
D03*
D33*
X8500Y9000D02*
D03*
D34*
X69980Y57677D02*
D03*
X68110Y80807D02*
D03*
X89961Y29626D02*
D03*
X42815Y27067D02*
D03*
X46323Y6835D02*
D03*
D35*
X35236Y94488D02*
D03*
X69980Y72736D02*
D03*
X56693Y108957D02*
D03*
M02*
