G04*
G04 #@! TF.GenerationSoftware,Altium Limited,Altium Designer,23.7.1 (13)*
G04*
G04 Layer_Color=65535*
%FSLAX25Y25*%
%MOIN*%
G70*
G04*
G04 #@! TF.SameCoordinates,19F5D0B9-5710-4248-B450-38BAA5BA0137*
G04*
G04*
G04 #@! TF.FilePolarity,Positive*
G04*
G01*
G75*
%ADD10C,0.00787*%
%ADD11C,0.00984*%
%ADD12C,0.01000*%
%ADD13C,0.00500*%
%ADD14C,0.01575*%
D10*
X53533Y91381D02*
G03*
X53533Y91381I-394J0D01*
G01*
X53604Y27365D02*
G03*
X53604Y27365I-394J0D01*
G01*
X17576Y57742D02*
G03*
X17576Y57742I-394J0D01*
G01*
X54513Y76028D02*
Y79571D01*
X57269D01*
X66324Y76028D02*
Y79571D01*
X63569D02*
X66324D01*
X54513Y51713D02*
Y55256D01*
X57269D01*
X66324Y51713D02*
Y55256D01*
X63569D02*
X66324D01*
X8153Y79441D02*
X14846D01*
X8153Y84559D02*
X14846D01*
X2764Y28567D02*
Y31106D01*
Y28567D02*
X4776D01*
X2764Y37902D02*
Y40098D01*
Y46894D02*
Y49433D01*
X4776D01*
X21224D02*
X23236D01*
Y46894D02*
Y49433D01*
Y37902D02*
Y40098D01*
Y28567D02*
Y31106D01*
X21224Y28567D02*
X23236D01*
D11*
X53431Y72878D02*
G03*
X53431Y72878I-492J0D01*
G01*
Y48563D02*
G03*
X53431Y48563I-492J0D01*
G01*
X26287Y29000D02*
G03*
X26287Y29000I-492J0D01*
G01*
X103610Y15000D02*
X115610D01*
Y3094D02*
Y15000D01*
X103610Y3094D02*
Y15000D01*
Y3094D02*
X115610D01*
X2500Y115110D02*
X14500D01*
Y103205D02*
Y115110D01*
X2500Y103205D02*
Y115110D01*
Y103205D02*
X14500D01*
X24500Y3000D02*
Y15000D01*
X2500Y3000D02*
X24500D01*
X2500Y15000D02*
X24500D01*
X2500Y3000D02*
Y15000D01*
X103500Y80055D02*
X115500D01*
Y38055D02*
Y80055D01*
X103500Y38055D02*
Y80055D01*
Y38055D02*
X115500D01*
D12*
X29465Y50150D02*
Y50543D01*
X29858D01*
X43244Y43457D02*
Y50543D01*
X29465Y43457D02*
X43244D01*
X29465D02*
Y50150D01*
X29858Y50543D02*
X43244D01*
X29264Y61150D02*
Y61543D01*
X29658D01*
X43043Y54457D02*
Y61543D01*
X29264Y54457D02*
X43043D01*
X29264D02*
Y61150D01*
X29658Y61543D02*
X43043D01*
X15748Y97539D02*
Y97933D01*
X16142D01*
X29528Y90847D02*
Y97933D01*
X15748Y90847D02*
X29528D01*
X15748D02*
Y97539D01*
X16142Y97933D02*
X29528D01*
X3500Y-3500D02*
X8000Y1000D01*
X12500Y-3500D01*
X3500D02*
X12500D01*
X79732Y49606D02*
Y50000D01*
X80126D01*
X93512Y42913D02*
Y50000D01*
X79732Y42913D02*
X93512D01*
X79732D02*
Y49606D01*
X80126Y50000D02*
X93512D01*
X79732Y39764D02*
Y40157D01*
X80126D01*
X93512Y33071D02*
Y40157D01*
X79732Y33071D02*
X93512D01*
X79732D02*
Y39764D01*
X80126Y40157D02*
X93512D01*
X79732Y99902D02*
Y100295D01*
X80126D01*
X93512Y93209D02*
Y100295D01*
X79732Y93209D02*
X93512D01*
X79732D02*
Y99902D01*
X80126Y100295D02*
X93512D01*
X79732Y109744D02*
Y110138D01*
X80126D01*
X93512Y103051D02*
Y110138D01*
X79732Y103051D02*
X93512D01*
X79732D02*
Y109744D01*
X80126Y110138D02*
X93512D01*
X93504Y64862D02*
Y65256D01*
X93110Y64862D02*
X93504D01*
X79724D02*
Y71949D01*
X93504D01*
Y65256D02*
Y71949D01*
X79724Y64862D02*
X93110D01*
X79732Y81398D02*
Y81791D01*
X80126D01*
X93512Y74705D02*
Y81791D01*
X79732Y74705D02*
X93512D01*
X79732D02*
Y81398D01*
X80126Y81791D02*
X93512D01*
X66992Y18736D02*
X67386D01*
Y18342D02*
Y18736D01*
X60299Y4957D02*
X67386D01*
X60299D02*
Y18736D01*
X66992D01*
X67386Y4957D02*
Y18342D01*
X57150Y18736D02*
X57543D01*
Y18342D02*
Y18736D01*
X50457Y4957D02*
X57543D01*
X50457D02*
Y18736D01*
X57150D01*
X57543Y4957D02*
Y18342D01*
X117500Y43555D02*
X122000Y39055D01*
X117500Y43555D02*
X122000Y48055D01*
Y39055D02*
Y48055D01*
X30200Y65050D02*
X34500D01*
X30200D02*
Y87950D01*
X38800D01*
Y65050D02*
Y87950D01*
X34500Y65050D02*
X38800D01*
D13*
X54498Y97963D02*
X66398D01*
Y95263D02*
Y97963D01*
X54498Y95263D02*
X66398D01*
X54498D02*
Y97963D01*
X54568Y33947D02*
X66468D01*
Y31247D02*
Y33947D01*
X54568Y31247D02*
X66468D01*
X54568D02*
Y33947D01*
X10600Y59100D02*
Y71000D01*
X13300D01*
Y59100D02*
Y71000D01*
X10600Y59100D02*
X13300D01*
X96293Y5544D02*
X95834Y6004D01*
X94916D01*
X94457Y5544D01*
Y3708D01*
X94916Y3249D01*
X95834D01*
X96293Y3708D01*
X97212Y3249D02*
Y6004D01*
X99048Y3249D01*
Y6004D01*
X99967Y5544D02*
X100426Y6004D01*
X101344D01*
X101803Y5544D01*
Y5085D01*
X101344Y4626D01*
X100885D01*
X101344D01*
X101803Y4167D01*
Y3708D01*
X101344Y3249D01*
X100426D01*
X99967Y3708D01*
X18340Y105938D02*
X17881Y106397D01*
X16963D01*
X16504Y105938D01*
Y104101D01*
X16963Y103642D01*
X17881D01*
X18340Y104101D01*
X19259Y103642D02*
Y106397D01*
X21095Y103642D01*
Y106397D01*
X23391Y103642D02*
Y106397D01*
X22014Y105020D01*
X23851D01*
X17681Y18719D02*
X17221Y18259D01*
Y17341D01*
X17681Y16882D01*
X19517D01*
X19976Y17341D01*
Y18259D01*
X19517Y18719D01*
X18599D01*
Y17800D01*
X19976Y19637D02*
X17221D01*
X19976Y21474D01*
X17221D01*
Y22392D02*
X19976D01*
Y23769D01*
X19517Y24229D01*
X17681D01*
X17221Y23769D01*
Y22392D01*
X7379Y16488D02*
X10134D01*
Y17866D01*
X9675Y18325D01*
X9216D01*
X8756Y17866D01*
Y16488D01*
Y17866D01*
X8297Y18325D01*
X7838D01*
X7379Y17866D01*
Y16488D01*
X10134Y19243D02*
X8297D01*
X7379Y20162D01*
X8297Y21080D01*
X10134D01*
X8756D01*
Y19243D01*
X7379Y21998D02*
Y23835D01*
Y22917D01*
X10134D01*
X8756Y24753D02*
Y26590D01*
X7838Y25672D02*
X9675D01*
X71980Y105063D02*
Y107818D01*
X73357D01*
X73817Y107359D01*
Y106441D01*
X73357Y105982D01*
X71980D01*
X72898D02*
X73817Y105063D01*
X74735D02*
X75653D01*
X75194D01*
Y107818D01*
X74735Y107359D01*
X77031Y105063D02*
X77949D01*
X77490D01*
Y107818D01*
X77031Y107359D01*
X60399Y20516D02*
Y23271D01*
X61776D01*
X62235Y22812D01*
Y21894D01*
X61776Y21434D01*
X60399D01*
X61317D02*
X62235Y20516D01*
X63154D02*
X64072D01*
X63613D01*
Y23271D01*
X63154Y22812D01*
X65450D02*
X65909Y23271D01*
X66827D01*
X67286Y22812D01*
Y20975D01*
X66827Y20516D01*
X65909D01*
X65450Y20975D01*
Y22812D01*
X73062Y95122D02*
Y97878D01*
X74440D01*
X74899Y97418D01*
Y96500D01*
X74440Y96041D01*
X73062D01*
X73981D02*
X74899Y95122D01*
X75817Y95582D02*
X76277Y95122D01*
X77195D01*
X77654Y95582D01*
Y97418D01*
X77195Y97878D01*
X76277D01*
X75817Y97418D01*
Y96959D01*
X76277Y96500D01*
X77654D01*
X50621Y20418D02*
Y23173D01*
X51999D01*
X52458Y22714D01*
Y21795D01*
X51999Y21336D01*
X50621D01*
X51540D02*
X52458Y20418D01*
X53377Y22714D02*
X53836Y23173D01*
X54754D01*
X55213Y22714D01*
Y22254D01*
X54754Y21795D01*
X55213Y21336D01*
Y20877D01*
X54754Y20418D01*
X53836D01*
X53377Y20877D01*
Y21336D01*
X53836Y21795D01*
X53377Y22254D01*
Y22714D01*
X53836Y21795D02*
X54754D01*
X73062Y76914D02*
Y79669D01*
X74440D01*
X74899Y79210D01*
Y78291D01*
X74440Y77832D01*
X73062D01*
X73981D02*
X74899Y76914D01*
X75817Y79669D02*
X77654D01*
Y79210D01*
X75817Y77373D01*
Y76914D01*
X73259Y35182D02*
Y37937D01*
X74637D01*
X75096Y37477D01*
Y36559D01*
X74637Y36100D01*
X73259D01*
X74178D02*
X75096Y35182D01*
X77851Y37937D02*
X76933Y37477D01*
X76014Y36559D01*
Y35641D01*
X76473Y35182D01*
X77392D01*
X77851Y35641D01*
Y36100D01*
X77392Y36559D01*
X76014D01*
X73259Y67071D02*
Y69826D01*
X74637D01*
X75096Y69367D01*
Y68449D01*
X74637Y67990D01*
X73259D01*
X74178D02*
X75096Y67071D01*
X77851Y69826D02*
X76014D01*
Y68449D01*
X76933Y68908D01*
X77392D01*
X77851Y68449D01*
Y67531D01*
X77392Y67071D01*
X76473D01*
X76014Y67531D01*
X73358Y45024D02*
Y47779D01*
X74735D01*
X75194Y47320D01*
Y46402D01*
X74735Y45942D01*
X73358D01*
X74276D02*
X75194Y45024D01*
X77490D02*
Y47779D01*
X76113Y46402D01*
X77949D01*
X34421Y39020D02*
Y41775D01*
X35798D01*
X36257Y41316D01*
Y40398D01*
X35798Y39939D01*
X34421D01*
X35339D02*
X36257Y39020D01*
X37176Y41316D02*
X37635Y41775D01*
X38553D01*
X39012Y41316D01*
Y40857D01*
X38553Y40398D01*
X38094D01*
X38553D01*
X39012Y39939D01*
Y39479D01*
X38553Y39020D01*
X37635D01*
X37176Y39479D01*
X22806Y56737D02*
Y59492D01*
X24184D01*
X24643Y59032D01*
Y58114D01*
X24184Y57655D01*
X22806D01*
X23725D02*
X24643Y56737D01*
X27398D02*
X25561D01*
X27398Y58573D01*
Y59032D01*
X26939Y59492D01*
X26021D01*
X25561Y59032D01*
X10372Y92957D02*
Y95712D01*
X11750D01*
X12209Y95253D01*
Y94335D01*
X11750Y93875D01*
X10372D01*
X11290D02*
X12209Y92957D01*
X13127D02*
X14045D01*
X13586D01*
Y95712D01*
X13127Y95253D01*
X50124Y95700D02*
Y97536D01*
X49665Y97996D01*
X48746D01*
X48287Y97536D01*
Y95700D01*
X48746Y95241D01*
X49665D01*
X49205Y96159D02*
X50124Y95241D01*
X49665D02*
X50124Y95700D01*
X52879Y97996D02*
X51042D01*
Y96618D01*
X51961Y97077D01*
X52420D01*
X52879Y96618D01*
Y95700D01*
X52420Y95241D01*
X51501D01*
X51042Y95700D01*
X49899Y31408D02*
Y33245D01*
X49440Y33704D01*
X48522D01*
X48062Y33245D01*
Y31408D01*
X48522Y30949D01*
X49440D01*
X48981Y31868D02*
X49899Y30949D01*
X49440D02*
X49899Y31408D01*
X52195Y30949D02*
Y33704D01*
X50817Y32327D01*
X52654D01*
X49899Y76637D02*
Y78474D01*
X49440Y78933D01*
X48522D01*
X48062Y78474D01*
Y76637D01*
X48522Y76178D01*
X49440D01*
X48981Y77096D02*
X49899Y76178D01*
X49440D02*
X49899Y76637D01*
X50817Y78474D02*
X51277Y78933D01*
X52195D01*
X52654Y78474D01*
Y78014D01*
X52195Y77555D01*
X51736D01*
X52195D01*
X52654Y77096D01*
Y76637D01*
X52195Y76178D01*
X51277D01*
X50817Y76637D01*
X50096Y52471D02*
Y54308D01*
X49637Y54767D01*
X48718D01*
X48259Y54308D01*
Y52471D01*
X48718Y52012D01*
X49637D01*
X49178Y52931D02*
X50096Y52012D01*
X49637D02*
X50096Y52471D01*
X52851Y52012D02*
X51014D01*
X52851Y53849D01*
Y54308D01*
X52392Y54767D01*
X51473D01*
X51014Y54308D01*
X7837Y74259D02*
Y76096D01*
X7378Y76555D01*
X6459D01*
X6000Y76096D01*
Y74259D01*
X6459Y73800D01*
X7378D01*
X6918Y74718D02*
X7837Y73800D01*
X7378D02*
X7837Y74259D01*
X8755Y73800D02*
X9673D01*
X9214D01*
Y76555D01*
X8755Y76096D01*
X2800Y55555D02*
Y52800D01*
X4637D01*
X5555D02*
X6473D01*
X6014D01*
Y55555D01*
X5555Y55096D01*
X6200Y90555D02*
Y87800D01*
X7577D01*
X8037Y88259D01*
Y90096D01*
X7577Y90555D01*
X6200D01*
X8955Y87800D02*
X9873D01*
X9414D01*
Y90555D01*
X8955Y90096D01*
X105337Y85296D02*
X104877Y85755D01*
X103959D01*
X103500Y85296D01*
Y83459D01*
X103959Y83000D01*
X104877D01*
X105337Y83459D01*
X106255Y83000D02*
Y85755D01*
X108092Y83000D01*
Y85755D01*
X110847Y83000D02*
X109010D01*
X110847Y84837D01*
Y85296D01*
X110388Y85755D01*
X109469D01*
X109010Y85296D01*
X27465Y5588D02*
X27006Y6047D01*
X26087D01*
X25628Y5588D01*
Y3751D01*
X26087Y3292D01*
X27006D01*
X27465Y3751D01*
X28383Y3292D02*
Y6047D01*
X30220Y3292D01*
Y6047D01*
X31138Y3292D02*
X32057D01*
X31598D01*
Y6047D01*
X31138Y5588D01*
X25337Y77396D02*
X24878Y77855D01*
X23959D01*
X23500Y77396D01*
Y75559D01*
X23959Y75100D01*
X24878D01*
X25337Y75559D01*
X26255Y75100D02*
X27173D01*
X26714D01*
Y77855D01*
X26255Y77396D01*
D14*
X18783Y79441D02*
Y84559D01*
M02*
