G04*
G04 #@! TF.GenerationSoftware,Altium Limited,Altium Designer,23.7.1 (13)*
G04*
G04 Layer_Color=8421504*
%FSLAX25Y25*%
%MOIN*%
G70*
G04*
G04 #@! TF.SameCoordinates,19F5D0B9-5710-4248-B450-38BAA5BA0137*
G04*
G04*
G04 #@! TF.FilePolarity,Positive*
G04*
G01*
G75*
%ADD15R,0.04500X0.04000*%
%ADD16R,0.02756X0.03543*%
%ADD17R,0.03150X0.03543*%
%ADD18R,0.04000X0.04500*%
%ADD19R,0.03150X0.02165*%
%ADD20R,0.05512X0.05512*%
%ADD21R,0.05500X0.08700*%
%ADD22R,0.03543X0.02756*%
D15*
X39701Y47000D02*
D03*
X33000D02*
D03*
X39500Y58000D02*
D03*
X32799D02*
D03*
X25984Y94390D02*
D03*
X19284D02*
D03*
X89969Y46457D02*
D03*
X83268D02*
D03*
X89969Y36614D02*
D03*
X83268D02*
D03*
X89969Y96752D02*
D03*
X83268D02*
D03*
X89969Y106595D02*
D03*
X83268D02*
D03*
Y68405D02*
D03*
X89969D02*
D03*
Y78248D02*
D03*
X83268D02*
D03*
D16*
X56657Y92563D02*
D03*
X64138D02*
D03*
X60398Y100516D02*
D03*
X56728Y28547D02*
D03*
X64208D02*
D03*
X60468Y36500D02*
D03*
D17*
X56679Y72878D02*
D03*
X64159D02*
D03*
X60419Y80752D02*
D03*
X56679Y48563D02*
D03*
X64159D02*
D03*
X60419Y56437D02*
D03*
D18*
X63842Y8500D02*
D03*
Y15201D02*
D03*
X54000Y8500D02*
D03*
Y15201D02*
D03*
D19*
X7346Y82000D02*
D03*
X15653D02*
D03*
D20*
X13000Y44315D02*
D03*
Y33685D02*
D03*
D21*
X34500Y82050D02*
D03*
Y70950D02*
D03*
D22*
X16000Y61260D02*
D03*
Y68740D02*
D03*
X8047Y65000D02*
D03*
M02*
