G04*
G04 #@! TF.GenerationSoftware,Altium Limited,Altium Designer,23.7.1 (13)*
G04*
G04 Layer_Physical_Order=1*
G04 Layer_Color=255*
%FSLAX25Y25*%
%MOIN*%
G70*
G04*
G04 #@! TF.SameCoordinates,19F5D0B9-5710-4248-B450-38BAA5BA0137*
G04*
G04*
G04 #@! TF.FilePolarity,Positive*
G04*
G01*
G75*
%ADD15R,0.04500X0.04000*%
%ADD16R,0.02756X0.03543*%
%ADD17R,0.03150X0.03543*%
%ADD18R,0.04000X0.04500*%
%ADD19R,0.03150X0.02165*%
%ADD20R,0.05512X0.05512*%
%ADD21R,0.05500X0.08700*%
%ADD22R,0.03543X0.02756*%
%ADD36C,0.01500*%
%ADD37C,0.03000*%
%ADD38R,0.07087X0.07087*%
%ADD39C,0.07087*%
%ADD40R,0.07087X0.07087*%
%ADD41C,0.02362*%
%ADD42C,0.05000*%
G36*
X116581Y1529D02*
X1529D01*
Y116581D01*
X116581D01*
Y1529D01*
D02*
G37*
%LPC*%
G36*
X90756Y109595D02*
Y107382D01*
X93218D01*
Y109595D01*
X90756D01*
D02*
G37*
G36*
X13043Y113654D02*
X3957D01*
Y104567D01*
X13043D01*
Y113654D01*
D02*
G37*
G36*
X93218Y105807D02*
X90756D01*
Y103595D01*
X93218D01*
Y105807D01*
D02*
G37*
G36*
X86718Y109595D02*
X86219Y109595D01*
X80018D01*
Y103595D01*
X81483D01*
Y99752D01*
X80018D01*
Y93752D01*
X80698D01*
X80996Y93350D01*
X80880Y92969D01*
X80119Y91544D01*
X79094Y90296D01*
X77845Y89271D01*
X76421Y88510D01*
X74875Y88041D01*
X73348Y87890D01*
X73268Y87906D01*
X60335D01*
X60282Y87896D01*
X59602Y88031D01*
X58981Y88446D01*
X58566Y89067D01*
X58522Y89291D01*
X58932Y89791D01*
X59035D01*
Y95335D01*
X54280D01*
Y89791D01*
X54862D01*
X55047Y88382D01*
X55594Y87062D01*
X56464Y85928D01*
X57598Y85059D01*
X58918Y84512D01*
X60335Y84325D01*
Y84338D01*
X73268D01*
Y84336D01*
X75112Y84481D01*
X76910Y84913D01*
X78619Y85620D01*
X80196Y86587D01*
X81602Y87788D01*
X82803Y89194D01*
X83769Y90771D01*
X84477Y92480D01*
X84783Y93752D01*
X86219D01*
X86518Y93752D01*
X87018Y93752D01*
X93218D01*
Y93844D01*
X93647Y94101D01*
X94619Y93582D01*
X95887Y92541D01*
X96928Y91272D01*
X97702Y89825D01*
X98178Y88255D01*
X98331Y86705D01*
X98314Y86622D01*
Y76645D01*
X97814Y76546D01*
X97390Y77569D01*
X96605Y78593D01*
X95581Y79378D01*
X94389Y79872D01*
X93218Y80026D01*
Y81248D01*
X87018D01*
X86718Y81248D01*
X86219Y81248D01*
X80018D01*
Y75248D01*
X81483D01*
Y71406D01*
X80018D01*
Y67190D01*
X79823Y66745D01*
X62303D01*
X62251Y66734D01*
X61305Y66859D01*
X60374Y67244D01*
X59576Y67857D01*
X58963Y68656D01*
X58577Y69587D01*
X58558Y69730D01*
X58888Y70106D01*
X59254D01*
Y75650D01*
X54104D01*
Y70106D01*
X54940D01*
X55036Y69139D01*
X55457Y67749D01*
X56142Y66468D01*
X57063Y65345D01*
X58186Y64424D01*
X59467Y63739D01*
X60857Y63317D01*
X62303Y63175D01*
Y63176D01*
X79823D01*
Y63166D01*
X81179Y63344D01*
X82443Y63868D01*
X83528Y64701D01*
X84069Y65405D01*
X86219D01*
X86518Y65405D01*
X87018Y65405D01*
X87738D01*
X88162Y64906D01*
X88050Y63763D01*
X87581Y62217D01*
X86820Y60793D01*
X86112Y59931D01*
X85778Y59561D01*
Y59561D01*
X85431Y59214D01*
X84935Y58718D01*
X84934Y58720D01*
X83732Y57313D01*
X82766Y55736D01*
X82058Y54028D01*
X81626Y52229D01*
X81481Y50385D01*
X81481D01*
X81268Y49974D01*
X81082Y49836D01*
X79935Y50184D01*
X78183Y50356D01*
Y50347D01*
X71073D01*
X70815Y50776D01*
X71188Y51473D01*
X71621Y52900D01*
X71767Y54384D01*
X71765D01*
Y56377D01*
X71829Y56442D01*
X72161Y57243D01*
Y58111D01*
X71829Y58913D01*
X71216Y59526D01*
X70414Y59858D01*
X69547D01*
X68745Y59526D01*
X68131Y58913D01*
X67799Y58111D01*
Y57243D01*
X68131Y56442D01*
X68196Y56377D01*
Y54384D01*
X68208Y54327D01*
X68077Y53334D01*
X67672Y52356D01*
X67112Y51628D01*
X66734Y51335D01*
X61584D01*
Y45791D01*
X66734D01*
Y46779D01*
X78183D01*
X78276Y46797D01*
X79590Y46624D01*
X80018Y46447D01*
Y43457D01*
X85112D01*
X85374Y43031D01*
X83652Y39614D01*
X80018D01*
Y38399D01*
X78363D01*
X78282Y38382D01*
X76755Y38533D01*
X75209Y39002D01*
X73785Y39763D01*
X72917Y40475D01*
X72553Y40805D01*
X72553Y40805D01*
X71502Y41856D01*
X71504Y41859D01*
X70317Y42833D01*
X68962Y43557D01*
X67492Y44003D01*
X65963Y44154D01*
Y44150D01*
X60398D01*
X60343Y44140D01*
X59649Y44278D01*
X59014Y44702D01*
X58620Y45291D01*
X58677Y45527D01*
X58894Y45791D01*
X59254D01*
Y51335D01*
X54104D01*
Y45791D01*
X54920D01*
X55070Y44657D01*
X55621Y43327D01*
X56497Y42185D01*
X57640Y41308D01*
X58970Y40757D01*
X60398Y40569D01*
Y40582D01*
X65963D01*
X66026Y40595D01*
X67072Y40457D01*
X68106Y40029D01*
X68943Y39386D01*
X68979Y39333D01*
X69556Y38756D01*
X69255Y38350D01*
X69202Y38378D01*
X67565Y38874D01*
X65931Y39035D01*
X65862Y39049D01*
X62846D01*
Y39272D01*
X58090D01*
Y39049D01*
X57496D01*
X57401Y39030D01*
X56314Y39137D01*
X55178Y39482D01*
X54131Y40042D01*
X53212Y40795D01*
X52459Y41713D01*
X51899Y42761D01*
X51555Y43897D01*
X51447Y44984D01*
X51466Y45079D01*
Y51968D01*
X51448Y52060D01*
X51579Y52717D01*
X52003Y53352D01*
X52637Y53776D01*
X53294Y53906D01*
X53386Y53888D01*
X57844D01*
Y53665D01*
X62994D01*
Y59209D01*
X57844D01*
Y58986D01*
X53386D01*
X53234Y58956D01*
X52020Y58836D01*
X50706Y58438D01*
X49496Y57791D01*
X48434Y56920D01*
X47564Y55859D01*
X46917Y54648D01*
X46518Y53335D01*
X46399Y52121D01*
X46368Y51968D01*
Y45079D01*
X46393Y44956D01*
X46520Y43340D01*
X46927Y41645D01*
X47594Y40034D01*
X48505Y38547D01*
X49638Y37221D01*
X50964Y36088D01*
X52451Y35177D01*
X54062Y34510D01*
X55758Y34103D01*
X57374Y33975D01*
X57496Y33951D01*
X58090D01*
Y33728D01*
X62846D01*
Y33951D01*
X65862D01*
X65954Y33969D01*
X66811Y33856D01*
X67695Y33490D01*
X68455Y32908D01*
X69037Y32148D01*
X69404Y31264D01*
X69516Y30407D01*
X69498Y30315D01*
Y19000D01*
X69515Y18914D01*
X69663Y17039D01*
X70122Y15125D01*
X70875Y13308D01*
X71903Y11630D01*
X73181Y10134D01*
X74677Y8856D01*
X76355Y7828D01*
X78173Y7075D01*
X80086Y6616D01*
X81961Y6468D01*
X82047Y6451D01*
X105067D01*
Y4457D01*
X114154D01*
Y13543D01*
X105067D01*
Y11549D01*
X102805D01*
X101682Y12149D01*
X100434Y13174D01*
X99409Y14422D01*
X98647Y15847D01*
X98178Y17392D01*
X98028Y18919D01*
X98044Y19000D01*
Y60598D01*
X98544Y60657D01*
X98826Y59481D01*
X99453Y57970D01*
X100307Y56575D01*
X101370Y55331D01*
X102613Y54269D01*
X104008Y53414D01*
X105088Y52967D01*
X105266Y52302D01*
X105865Y51266D01*
X106710Y50420D01*
X107746Y49821D01*
X108902Y49512D01*
X110098D01*
X111254Y49821D01*
X112290Y50420D01*
X113136Y51266D01*
X113734Y52302D01*
X114043Y53457D01*
Y54653D01*
X113734Y55809D01*
X113136Y56845D01*
X112290Y57691D01*
X111254Y58289D01*
X110098Y58598D01*
X108902D01*
X107746Y58289D01*
X106710Y57691D01*
X105865Y56845D01*
X105704Y56567D01*
X104921Y56986D01*
X103879Y57841D01*
X103024Y58883D01*
X102389Y60072D01*
X101997Y61361D01*
X101871Y62644D01*
X101883Y62703D01*
Y86622D01*
X101885D01*
X101739Y88486D01*
X101302Y90304D01*
X100586Y92032D01*
X99609Y93626D01*
X98395Y95048D01*
X96973Y96263D01*
X95379Y97240D01*
X93651Y97956D01*
X93218Y98059D01*
Y99752D01*
X87018D01*
X86718Y99752D01*
X86219Y99752D01*
X85052D01*
Y103241D01*
X85406Y103595D01*
X86518Y103595D01*
X87018Y103595D01*
X89181D01*
Y106595D01*
Y109595D01*
X87018D01*
X86718Y109595D01*
D02*
G37*
G36*
X57154Y112457D02*
X56232D01*
X55342Y112218D01*
X54544Y111757D01*
X53892Y111106D01*
X53431Y110308D01*
X53193Y109417D01*
Y109062D01*
X49650Y105519D01*
X49601Y105446D01*
X48380Y104015D01*
X47352Y102338D01*
X46599Y100520D01*
X46139Y98607D01*
X45992Y96731D01*
X45975Y96645D01*
Y88583D01*
X45974D01*
X46173Y86558D01*
X46764Y84610D01*
X47723Y82815D01*
X49014Y81242D01*
X50587Y79951D01*
X52382Y78992D01*
X54329Y78401D01*
X56354Y78202D01*
Y78203D01*
X57844D01*
Y77980D01*
X62994D01*
Y78968D01*
X66865D01*
X66875Y78958D01*
X67676Y78626D01*
X68544D01*
X69346Y78958D01*
X69959Y79572D01*
X70291Y80373D01*
Y81241D01*
X69959Y82043D01*
X69346Y82656D01*
X68544Y82988D01*
X67676D01*
X66875Y82656D01*
X66755Y82536D01*
X62994D01*
Y83524D01*
X57844D01*
Y83301D01*
X56354D01*
X56220Y83274D01*
X54976Y83438D01*
X53691Y83970D01*
X52588Y84816D01*
X51742Y85919D01*
X51210Y87204D01*
X51046Y88448D01*
X51073Y88583D01*
Y96645D01*
X51049Y96763D01*
X51181Y98106D01*
X51607Y99510D01*
X52299Y100804D01*
X53155Y101847D01*
X53255Y101914D01*
X56798Y105457D01*
X57154D01*
X57459Y105538D01*
X57494Y105512D01*
X57849Y105125D01*
Y100516D01*
X58020Y99656D01*
Y97744D01*
X62776D01*
Y99656D01*
X62947Y100516D01*
Y105252D01*
X62909Y105441D01*
X62808Y106468D01*
X62453Y107638D01*
X61877Y108716D01*
X61102Y109661D01*
X60157Y110436D01*
X59757Y110650D01*
X59494Y111106D01*
X58842Y111757D01*
X58044Y112218D01*
X57154Y112457D01*
D02*
G37*
G36*
X35697Y97988D02*
X34775D01*
X33885Y97750D01*
X33087Y97289D01*
X32786Y96988D01*
X29234D01*
Y97390D01*
X23033D01*
X22734Y97390D01*
X22234Y97390D01*
X16034D01*
Y94601D01*
X15510Y93988D01*
X14481Y92310D01*
X13729Y90492D01*
X13269Y88579D01*
X13122Y86704D01*
X13105Y86618D01*
Y84083D01*
X13079D01*
Y79917D01*
X14271D01*
X14678Y79645D01*
X15653Y79451D01*
X24860D01*
X25104Y79015D01*
X24918Y78712D01*
X24273Y77153D01*
X23879Y75512D01*
X23757Y73961D01*
X23731Y73830D01*
Y64520D01*
X23741Y64467D01*
X23910Y62752D01*
X24426Y61051D01*
X24572Y60778D01*
X24178Y60455D01*
X22962Y61453D01*
X21317Y62332D01*
X19533Y62873D01*
X18772Y62948D01*
Y63638D01*
X13228D01*
Y58882D01*
X18772D01*
Y58882D01*
X19272Y59242D01*
X19952Y59036D01*
X20980Y58486D01*
X21881Y57747D01*
X22620Y56846D01*
X23170Y55818D01*
X23508Y54703D01*
X23574Y54031D01*
X23604Y53543D01*
X23604D01*
X23764Y51917D01*
X24238Y50354D01*
X25008Y48913D01*
X26044Y47651D01*
X27307Y46614D01*
X28748Y45844D01*
X29750Y45540D01*
Y44000D01*
X35951D01*
X36250Y44000D01*
X36750Y44000D01*
X37916D01*
Y30181D01*
X37909D01*
X38076Y28911D01*
X38566Y27728D01*
X39346Y26712D01*
X40362Y25932D01*
X41221Y25576D01*
X41579Y25218D01*
X42381Y24886D01*
X43249D01*
X44050Y25218D01*
X44664Y25831D01*
X44996Y26633D01*
Y27501D01*
X44664Y28302D01*
X44050Y28916D01*
X43249Y29248D01*
X42381D01*
X42051Y29111D01*
X41868Y29234D01*
X41577Y29668D01*
X41480Y30156D01*
X41485Y30181D01*
Y44000D01*
X42951D01*
Y50000D01*
X36750D01*
X36451Y50000D01*
X35951Y50000D01*
X29750D01*
Y49873D01*
X29250Y49626D01*
X28554Y50160D01*
X27794Y51151D01*
X27316Y52305D01*
X27217Y53055D01*
X27189Y53543D01*
X27189D01*
X27007Y55399D01*
X26465Y57183D01*
X26257Y57574D01*
X26651Y57897D01*
X27764Y56984D01*
X29331Y56146D01*
X29549Y56080D01*
Y55000D01*
X35750D01*
X36049Y55000D01*
X36549Y55000D01*
X38713D01*
Y58000D01*
Y61000D01*
X36549D01*
X36250Y61000D01*
X35750Y61000D01*
X30923D01*
X30797Y61052D01*
X29968Y61689D01*
X29332Y62518D01*
X28932Y63483D01*
X28809Y64419D01*
X28828Y64520D01*
Y73830D01*
X28800Y73975D01*
X28975Y75310D01*
X29547Y76689D01*
X30250Y77606D01*
X30750Y77436D01*
Y76800D01*
X30750Y76700D01*
Y76300D01*
X30750Y76200D01*
Y71737D01*
X34500D01*
X38250D01*
Y76200D01*
X38250Y76300D01*
Y76700D01*
X38250Y76800D01*
Y87400D01*
X30750D01*
Y84549D01*
X18203D01*
Y86618D01*
X18179Y86735D01*
X18311Y88078D01*
X18737Y89482D01*
X19429Y90777D01*
X19932Y91390D01*
X22234D01*
X22534Y91390D01*
X23033Y91390D01*
X29234D01*
Y91890D01*
X32885D01*
X33087Y91688D01*
X33885Y91227D01*
X34775Y90988D01*
X35697D01*
X36587Y91227D01*
X37385Y91688D01*
X38037Y92339D01*
X38498Y93137D01*
X38736Y94027D01*
Y94949D01*
X38498Y95839D01*
X38037Y96637D01*
X37385Y97289D01*
X36587Y97750D01*
X35697Y97988D01*
D02*
G37*
G36*
X66516Y95335D02*
X64925D01*
Y93350D01*
X66516D01*
Y95335D01*
D02*
G37*
G36*
X63350D02*
X61760D01*
Y93350D01*
X63350D01*
Y95335D01*
D02*
G37*
G36*
X66516Y91776D02*
X64925D01*
Y89791D01*
X66516D01*
Y91776D01*
D02*
G37*
G36*
X63350D02*
X61760D01*
Y89791D01*
X63350D01*
Y91776D01*
D02*
G37*
G36*
X70441Y76236D02*
X69520D01*
X68629Y75998D01*
X67831Y75537D01*
X67721Y75427D01*
X66734D01*
Y75650D01*
X61584D01*
Y70106D01*
X66734D01*
Y70329D01*
X67438D01*
X67831Y69936D01*
X68629Y69475D01*
X69520Y69236D01*
X70441D01*
X71331Y69475D01*
X72129Y69936D01*
X72781Y70587D01*
X73242Y71385D01*
X73480Y72275D01*
Y73197D01*
X73242Y74087D01*
X72781Y74885D01*
X72129Y75537D01*
X71331Y75998D01*
X70441Y76236D01*
D02*
G37*
G36*
X110287Y78548D02*
Y74843D01*
X113993D01*
X113734Y75809D01*
X113136Y76845D01*
X112290Y77691D01*
X111254Y78289D01*
X110287Y78548D01*
D02*
G37*
G36*
X108713D02*
X107746Y78289D01*
X106710Y77691D01*
X105865Y76845D01*
X105266Y75809D01*
X105007Y74843D01*
X108713D01*
Y78548D01*
D02*
G37*
G36*
X113993Y73268D02*
X110287D01*
Y69563D01*
X111254Y69822D01*
X112290Y70420D01*
X113136Y71266D01*
X113734Y72302D01*
X113993Y73268D01*
D02*
G37*
G36*
X108713D02*
X105007D01*
X105266Y72302D01*
X105865Y71266D01*
X106710Y70420D01*
X107746Y69822D01*
X108713Y69563D01*
Y73268D01*
D02*
G37*
G36*
X18772Y71118D02*
X16787D01*
Y69528D01*
X18772D01*
Y71118D01*
D02*
G37*
G36*
X15213D02*
X13228D01*
Y69528D01*
X15213D01*
Y71118D01*
D02*
G37*
G36*
X18772Y67953D02*
X16787D01*
Y66362D01*
X18772D01*
Y67953D01*
D02*
G37*
G36*
X15213D02*
X13228D01*
Y66362D01*
X15213D01*
Y67953D01*
D02*
G37*
G36*
X38250Y70163D02*
X35287D01*
Y65600D01*
X38250D01*
Y70163D01*
D02*
G37*
G36*
X33713D02*
X30750D01*
Y65600D01*
X33713D01*
Y70163D01*
D02*
G37*
G36*
X110098Y68598D02*
X108902D01*
X107746Y68289D01*
X106710Y67691D01*
X105865Y66845D01*
X105266Y65809D01*
X104957Y64653D01*
Y63457D01*
X105266Y62301D01*
X105865Y61265D01*
X106710Y60420D01*
X107746Y59821D01*
X108902Y59512D01*
X110098D01*
X111254Y59821D01*
X112290Y60420D01*
X113136Y61265D01*
X113734Y62301D01*
X114043Y63457D01*
Y64653D01*
X113734Y65809D01*
X113136Y66845D01*
X112290Y67691D01*
X111254Y68289D01*
X110098Y68598D01*
D02*
G37*
G36*
X40287Y61000D02*
Y58787D01*
X42750D01*
Y61000D01*
X40287D01*
D02*
G37*
G36*
X42750Y57213D02*
X40287D01*
Y55000D01*
X42750D01*
Y57213D01*
D02*
G37*
G36*
X7346Y84549D02*
X6371Y84355D01*
X5963Y84083D01*
X4772D01*
Y79917D01*
X4797D01*
Y66692D01*
X4817Y66591D01*
X4972Y65415D01*
X5276Y64683D01*
Y62622D01*
X5498D01*
Y53410D01*
X5515Y53324D01*
X5663Y51448D01*
X5971Y50167D01*
X2653Y47024D01*
X2645Y47012D01*
X2633Y47004D01*
X2530Y46850D01*
X2423Y46699D01*
X2420Y46685D01*
X2412Y46674D01*
X2376Y46492D01*
X2335Y46311D01*
X2338Y46297D01*
X2335Y46284D01*
Y41559D01*
X2412Y41169D01*
X2633Y40838D01*
X2964Y40617D01*
X3354Y40540D01*
X22646D01*
X23036Y40617D01*
X23367Y40838D01*
X23588Y41169D01*
X23665Y41559D01*
Y46284D01*
X23663Y46297D01*
X23665Y46311D01*
X23624Y46492D01*
X23588Y46674D01*
X23580Y46685D01*
X23577Y46699D01*
X23470Y46850D01*
X23367Y47004D01*
X23355Y47012D01*
X23347Y47024D01*
X19607Y50567D01*
X19450Y50666D01*
X19296Y50769D01*
X19282Y50771D01*
X19270Y50779D01*
X19087Y50810D01*
X18905Y50846D01*
X11040D01*
X10705Y51949D01*
X10573Y53292D01*
X10596Y53410D01*
Y62622D01*
X10819D01*
Y67378D01*
X9895D01*
Y79917D01*
X9921D01*
Y84083D01*
X8729D01*
X8322Y84355D01*
X7346Y84549D01*
D02*
G37*
G36*
X114043Y48598D02*
X104957D01*
Y39512D01*
X114043D01*
Y48598D01*
D02*
G37*
G36*
X66586Y31319D02*
X64996D01*
Y29335D01*
X66586D01*
Y31319D01*
D02*
G37*
G36*
X63421D02*
X61830D01*
Y29335D01*
X63421D01*
Y31319D01*
D02*
G37*
G36*
X66586Y27760D02*
X64996D01*
Y25776D01*
X66586D01*
Y27760D01*
D02*
G37*
G36*
X63421D02*
X61830D01*
Y25776D01*
X63421D01*
Y27760D01*
D02*
G37*
G36*
X19287Y13493D02*
Y9787D01*
X22993D01*
X22734Y10754D01*
X22136Y11790D01*
X21290Y12636D01*
X20254Y13234D01*
X19287Y13493D01*
D02*
G37*
G36*
X17713D02*
X16746Y13234D01*
X15710Y12636D01*
X14864Y11790D01*
X14266Y10754D01*
X14007Y9787D01*
X17713D01*
Y13493D01*
D02*
G37*
G36*
X59106Y31319D02*
X54350D01*
Y29639D01*
X53534Y29013D01*
X52816Y28078D01*
X52365Y26988D01*
X52211Y25819D01*
X52216D01*
Y18451D01*
X51000D01*
Y12250D01*
X51000Y11951D01*
X51000Y11451D01*
Y10284D01*
X47988D01*
X47917Y10270D01*
X47097Y10162D01*
X46266Y9818D01*
X45552Y9270D01*
X45109Y8693D01*
X45087Y8684D01*
X44474Y8070D01*
X44142Y7269D01*
Y6401D01*
X44474Y5599D01*
X45087Y4986D01*
X45889Y4654D01*
X46757D01*
X47558Y4986D01*
X48172Y5599D01*
X48504Y6401D01*
Y6716D01*
X51000D01*
Y5250D01*
X57000D01*
Y11451D01*
X57000Y11750D01*
X57000Y12250D01*
Y13417D01*
X60489D01*
X60843Y13063D01*
X60843Y11951D01*
X60843Y11451D01*
Y9287D01*
X63842D01*
X66843D01*
Y11451D01*
X66843Y11750D01*
X66843Y12250D01*
Y18451D01*
X60843D01*
Y16985D01*
X57000D01*
Y18451D01*
X55784D01*
Y25776D01*
X59106D01*
Y31319D01*
D02*
G37*
G36*
X66843Y7713D02*
X64630D01*
Y5250D01*
X66843D01*
Y7713D01*
D02*
G37*
G36*
X63055D02*
X60843D01*
Y5250D01*
X63055D01*
Y7713D01*
D02*
G37*
G36*
X22993Y8213D02*
X19287D01*
Y4507D01*
X20254Y4766D01*
X21290Y5364D01*
X22136Y6210D01*
X22734Y7246D01*
X22993Y8213D01*
D02*
G37*
G36*
X17713D02*
X14007D01*
X14266Y7246D01*
X14864Y6210D01*
X15710Y5364D01*
X16746Y4766D01*
X17713Y4507D01*
Y8213D01*
D02*
G37*
G36*
X22646Y37461D02*
X3354D01*
X2964Y37383D01*
X2633Y37162D01*
X2412Y36831D01*
X2335Y36441D01*
Y31716D01*
X2338Y31703D01*
X2335Y31689D01*
X2376Y31508D01*
X2412Y31326D01*
X2420Y31315D01*
X2423Y31301D01*
X2530Y31150D01*
X2633Y30996D01*
X2645Y30988D01*
X2653Y30976D01*
X6393Y27433D01*
X6550Y27334D01*
X6704Y27231D01*
X6718Y27229D01*
X6730Y27221D01*
X6913Y27190D01*
X7095Y27154D01*
X10082D01*
X10418Y26783D01*
X10342Y26016D01*
X9916Y24612D01*
X9224Y23318D01*
X8369Y22275D01*
X8269Y22208D01*
X8139Y22078D01*
X8065Y21968D01*
X7221Y20939D01*
X6532Y19650D01*
X6107Y18251D01*
X5977Y16927D01*
X5951Y16797D01*
Y13543D01*
X3957D01*
Y4457D01*
X13043D01*
Y13543D01*
X11049D01*
Y16797D01*
X11026Y16911D01*
X11187Y17721D01*
X11647Y18408D01*
X11743Y18473D01*
X11874Y18603D01*
X11922Y18676D01*
X13144Y20107D01*
X14172Y21784D01*
X14925Y23602D01*
X15384Y25515D01*
X15513Y27154D01*
X18905D01*
X19087Y27190D01*
X19270Y27221D01*
X19282Y27229D01*
X19296Y27231D01*
X19450Y27334D01*
X19607Y27433D01*
X23347Y30976D01*
X23355Y30988D01*
X23367Y30996D01*
X23470Y31150D01*
X23577Y31301D01*
X23580Y31315D01*
X23588Y31326D01*
X23624Y31508D01*
X23665Y31689D01*
X23663Y31703D01*
X23665Y31716D01*
Y36441D01*
X23588Y36831D01*
X23367Y37162D01*
X23036Y37383D01*
X22646Y37461D01*
D02*
G37*
%LPD*%
G36*
X94083Y76071D02*
X94381Y75625D01*
X94481Y75125D01*
X94476Y75098D01*
Y19000D01*
X94473D01*
X94619Y17156D01*
X95050Y15358D01*
X95758Y13649D01*
X96724Y12072D01*
X96784Y12003D01*
X96574Y11549D01*
X82047D01*
X81929Y11525D01*
X80587Y11658D01*
X79182Y12084D01*
X77888Y12776D01*
X76754Y13707D01*
X75823Y14841D01*
X75131Y16135D01*
X74705Y17539D01*
X74573Y18882D01*
X74596Y19000D01*
Y30315D01*
X74582Y30384D01*
X74422Y32017D01*
X73925Y33655D01*
X73119Y35164D01*
X72628Y35761D01*
X72961Y36144D01*
X73012Y36112D01*
X74720Y35405D01*
X76519Y34973D01*
X78363Y34828D01*
Y34830D01*
X80018D01*
Y33614D01*
X86219D01*
X86518Y33614D01*
Y33614D01*
X86718D01*
Y33614D01*
X88184D01*
Y30934D01*
X88112Y30861D01*
X87779Y30060D01*
Y29192D01*
X88112Y28390D01*
X88725Y27777D01*
X89527Y27445D01*
X90395D01*
X91196Y27777D01*
X91810Y28390D01*
X92142Y29192D01*
Y30060D01*
X91810Y30861D01*
X91753Y30918D01*
Y33614D01*
X93218D01*
Y39614D01*
X88125D01*
X87862Y40040D01*
X89585Y43457D01*
X93218D01*
Y49457D01*
X87018D01*
X86718Y49457D01*
Y49457D01*
X86518D01*
Y49457D01*
X85052D01*
Y50385D01*
X85036Y50466D01*
X85186Y51993D01*
X85655Y53539D01*
X86417Y54963D01*
X87390Y56149D01*
X87458Y56195D01*
X87948Y56684D01*
X88303Y57036D01*
X88303Y57036D01*
X89504Y58443D01*
X90470Y60020D01*
X91178Y61728D01*
X91610Y63527D01*
X91755Y65371D01*
X92240Y65405D01*
X93218D01*
Y71406D01*
X87018D01*
X86718Y71406D01*
X86219Y71406D01*
X85052D01*
Y74894D01*
X85406Y75248D01*
X86518Y75248D01*
X87018Y75248D01*
X93218D01*
Y76059D01*
X93422Y76226D01*
X93718Y76315D01*
X94083Y76071D01*
D02*
G37*
G36*
X22646Y46284D02*
Y41559D01*
X3354D01*
Y46284D01*
X7095Y49827D01*
X18905D01*
X22646Y46284D01*
D02*
G37*
G36*
Y31716D02*
X18905Y28173D01*
X7095D01*
X3354Y31716D01*
Y36441D01*
X22646D01*
Y31716D01*
D02*
G37*
D15*
X39701Y47000D02*
D03*
X33000D02*
D03*
X39500Y58000D02*
D03*
X32799D02*
D03*
X25984Y94390D02*
D03*
X19284D02*
D03*
X89969Y46457D02*
D03*
X83268D02*
D03*
X89969Y36614D02*
D03*
X83268D02*
D03*
X89969Y96752D02*
D03*
X83268D02*
D03*
X89969Y106595D02*
D03*
X83268D02*
D03*
Y68405D02*
D03*
X89969D02*
D03*
Y78248D02*
D03*
X83268D02*
D03*
D16*
X56657Y92563D02*
D03*
X64138D02*
D03*
X60398Y100516D02*
D03*
X56728Y28547D02*
D03*
X64208D02*
D03*
X60468Y36500D02*
D03*
D17*
X56679Y72878D02*
D03*
X64159D02*
D03*
X60419Y80752D02*
D03*
X56679Y48563D02*
D03*
X64159D02*
D03*
X60419Y56437D02*
D03*
D18*
X63842Y8500D02*
D03*
Y15201D02*
D03*
X54000Y8500D02*
D03*
Y15201D02*
D03*
D19*
X7346Y82000D02*
D03*
X15653D02*
D03*
D20*
X13000Y44315D02*
D03*
Y33685D02*
D03*
D21*
X34500Y82050D02*
D03*
Y70950D02*
D03*
D22*
X16000Y61260D02*
D03*
Y68740D02*
D03*
X8047Y65000D02*
D03*
D36*
X96260Y19000D02*
G03*
X106260Y9000I10000J0D01*
G01*
X96260Y75098D02*
G03*
X93110Y78248I-3150J0D01*
G01*
X47988Y8500D02*
G03*
X46323Y6835I0J-1665D01*
G01*
X64159Y48563D02*
G03*
X69980Y54384I0J5821D01*
G01*
X100098Y62703D02*
G03*
X109497Y54093I8642J-0D01*
G01*
X100098Y86622D02*
G03*
X89969Y96752I-10130J0D01*
G01*
X67977Y80752D02*
G03*
X68110Y80807I0J188D01*
G01*
X39701Y30181D02*
G03*
X42815Y27067I3114J0D01*
G01*
X25394Y53543D02*
G03*
X17677Y61260I-7717J0D01*
G01*
X25394Y53543D02*
G03*
X31937Y47000I6543J0D01*
G01*
X79823Y64961D02*
G03*
X83268Y68405I0J3445D01*
G01*
X56679Y70585D02*
G03*
X62303Y64961I5624J0D01*
G01*
X87040Y58299D02*
G03*
X89969Y65371I-7071J7071D01*
G01*
X86197Y57456D02*
G03*
X83268Y50385I7071J-7071D01*
G01*
Y46457D02*
G03*
X78183Y48563I-5085J-5085D01*
G01*
X73268Y86122D02*
G03*
X83268Y96122I0J10000D01*
G01*
X56657Y89799D02*
G03*
X60335Y86122I3677J0D01*
G01*
X71292Y39543D02*
G03*
X78363Y36614I7071J7071D01*
G01*
X70240Y40595D02*
G03*
X65963Y42366I-4277J-4277D01*
G01*
X56679Y46085D02*
G03*
X60398Y42366I3719J0D01*
G01*
X56728Y28547D02*
G03*
X54000Y25819I0J-2728D01*
G01*
X106260Y9000D02*
X109610D01*
X96260Y19000D02*
Y75098D01*
X89969Y78248D02*
X93110D01*
X47988Y8500D02*
X54000D01*
X64159Y48563D02*
X78183D01*
X69980Y54384D02*
Y57677D01*
X100098Y62703D02*
Y86622D01*
X60419Y80752D02*
X67977D01*
X89961Y29626D02*
X89969Y29634D01*
Y36614D01*
X16000Y61260D02*
X17677D01*
X31937Y47000D02*
X33000D01*
X39701Y30181D02*
Y47000D01*
X83268Y68405D02*
Y78248D01*
X62303Y64961D02*
X79823D01*
X56679Y70585D02*
Y72878D01*
X86197Y57456D02*
X87040Y58299D01*
X83268Y46457D02*
Y50385D01*
X89969Y65371D02*
Y68405D01*
X83268Y96752D02*
Y106595D01*
X60335Y86122D02*
X73268D01*
X56657Y89799D02*
Y92563D01*
X83268Y96122D02*
Y96752D01*
X78363Y36614D02*
X83268D01*
X84768Y37864D01*
X88468Y45207D01*
X89969Y46457D01*
X70240Y40595D02*
X71292Y39543D01*
X60398Y42366D02*
X65963D01*
X56679Y46085D02*
Y48563D01*
X54000Y15201D02*
Y25819D01*
Y15201D02*
X63842D01*
D37*
X72047Y19000D02*
G03*
X82047Y9000I10000J0D01*
G01*
X72047Y30315D02*
G03*
X65862Y36500I-6185J0D01*
G01*
X48917Y45079D02*
G03*
X57496Y36500I8579J0D01*
G01*
X53386Y56437D02*
G03*
X48917Y51968I0J-4468D01*
G01*
X69980Y72736D02*
G03*
X69638Y72878I-342J-342D01*
G01*
X18583Y93689D02*
G03*
X15653Y86618I7071J-7071D01*
G01*
X33595Y82000D02*
G03*
X26280Y73830I905J-8170D01*
G01*
X34500Y82050D02*
G03*
X33595Y82000I0J-8220D01*
G01*
X26280Y64520D02*
G03*
X32799Y58000I6520J0D01*
G01*
X51453Y103716D02*
G03*
X48524Y96645I7071J-7071D01*
G01*
X60398Y105252D02*
G03*
X56693Y108957I-3705J0D01*
G01*
X48524Y88583D02*
G03*
X56354Y80752I7831J0D01*
G01*
X7346Y66692D02*
G03*
X8047Y65000I2393J0D01*
G01*
Y53410D02*
G03*
X10976Y46339I10000J0D01*
G01*
X9941Y20276D02*
G03*
X8500Y16797I3479J-3479D01*
G01*
X10071Y20406D02*
G03*
X13000Y27477I-7071J7071D01*
G01*
X82047Y9000D02*
X106260D01*
X72047Y19000D02*
Y30315D01*
X57496Y36500D02*
X60468D01*
X65862D01*
X48917Y45079D02*
Y51968D01*
X53386Y56437D02*
X60419D01*
X64159Y72878D02*
X69638D01*
X56354Y80752D02*
X60419D01*
X25984Y94390D02*
X26033Y94439D01*
X35187D01*
X35236Y94488D01*
X18583Y93689D02*
X19284Y94390D01*
X15653Y82000D02*
X33595D01*
X15653D02*
Y86618D01*
X26280Y64520D02*
Y73830D01*
X51453Y103716D02*
X56693Y108957D01*
X48524Y88583D02*
Y96645D01*
X60398Y100516D02*
Y105252D01*
X7346Y66692D02*
Y82000D01*
X8047Y53410D02*
Y65000D01*
X10976Y46339D02*
X13000Y44315D01*
X8500Y9000D02*
Y16797D01*
X9941Y20276D02*
X10071Y20406D01*
X13000Y27477D02*
Y33685D01*
D38*
X109610Y9000D02*
D03*
X8500Y109110D02*
D03*
X109500Y44055D02*
D03*
D39*
X18500Y9000D02*
D03*
X109500Y74055D02*
D03*
Y64055D02*
D03*
Y54055D02*
D03*
D40*
X8500Y9000D02*
D03*
D41*
X69980Y57677D02*
D03*
X68110Y80807D02*
D03*
X89961Y29626D02*
D03*
X42815Y27067D02*
D03*
X46323Y6835D02*
D03*
D42*
X35236Y94488D02*
D03*
X69980Y72736D02*
D03*
X56693Y108957D02*
D03*
M02*
