G04*
G04 #@! TF.GenerationSoftware,Altium Limited,Altium Designer,23.7.1 (13)*
G04*
G04 Layer_Physical_Order=2*
G04 Layer_Color=16711680*
%FSLAX25Y25*%
%MOIN*%
G70*
G04*
G04 #@! TF.SameCoordinates,19F5D0B9-5710-4248-B450-38BAA5BA0137*
G04*
G04*
G04 #@! TF.FilePolarity,Positive*
G04*
G01*
G75*
%ADD36C,0.01500*%
%ADD37C,0.03000*%
%ADD38R,0.07087X0.07087*%
%ADD39C,0.07087*%
%ADD40R,0.07087X0.07087*%
%ADD41C,0.02362*%
%ADD42C,0.05000*%
G36*
X116581Y1529D02*
X1529D01*
Y116581D01*
X116581D01*
Y1529D01*
D02*
G37*
%LPC*%
G36*
X13043Y113654D02*
X3957D01*
Y104567D01*
X6051D01*
X6114Y103932D01*
X6565Y102447D01*
X7296Y101078D01*
X8281Y99879D01*
X9480Y98894D01*
X10849Y98163D01*
X12334Y97712D01*
X13770Y97571D01*
X13878Y97549D01*
X32641D01*
X32848Y97049D01*
X32436Y96637D01*
X31975Y95839D01*
X31736Y94949D01*
Y94027D01*
X31975Y93137D01*
X32436Y92339D01*
X33087Y91688D01*
X33885Y91227D01*
X34775Y90988D01*
X35697D01*
X36587Y91227D01*
X37385Y91688D01*
X37637Y91939D01*
X44086D01*
X44204Y91963D01*
X45547Y91830D01*
X46951Y91404D01*
X48245Y90713D01*
X49288Y89857D01*
X49355Y89757D01*
X66480Y72631D01*
Y72275D01*
X66719Y71385D01*
X67180Y70587D01*
X67831Y69936D01*
X68196Y69725D01*
Y58977D01*
X68131Y58913D01*
X67799Y58111D01*
Y57243D01*
X68131Y56442D01*
X68745Y55828D01*
X69547Y55496D01*
X70414D01*
X71216Y55828D01*
X71829Y56442D01*
X72161Y57243D01*
Y58111D01*
X71829Y58913D01*
X71765Y58977D01*
Y69725D01*
X72129Y69936D01*
X72781Y70587D01*
X73242Y71385D01*
X73480Y72275D01*
Y73197D01*
X73242Y74087D01*
X72781Y74885D01*
X72129Y75537D01*
X71331Y75998D01*
X70441Y76236D01*
X70085D01*
X68157Y78164D01*
X68349Y78626D01*
X68544D01*
X69262Y78923D01*
X69320Y78918D01*
X70484Y78565D01*
X71556Y77992D01*
X72496Y77220D01*
X73267Y76280D01*
X73840Y75208D01*
X74193Y74045D01*
X74308Y72882D01*
X74298Y72835D01*
Y47646D01*
X74296D01*
X74441Y45802D01*
X74873Y44004D01*
X75581Y42295D01*
X76547Y40718D01*
X77749Y39312D01*
X77750Y39313D01*
X87779Y29284D01*
Y29192D01*
X88112Y28390D01*
X88725Y27777D01*
X89527Y27445D01*
X90395D01*
X91196Y27777D01*
X91810Y28390D01*
X92142Y29192D01*
Y30060D01*
X91810Y30861D01*
X91196Y31475D01*
X90395Y31807D01*
X90303D01*
X80273Y41837D01*
X80205Y41882D01*
X79232Y43068D01*
X78470Y44493D01*
X78001Y46039D01*
X77851Y47565D01*
X77867Y47646D01*
Y72835D01*
X77880D01*
X77692Y74741D01*
X77136Y76573D01*
X76233Y78262D01*
X75018Y79743D01*
X73538Y80958D01*
X71849Y81861D01*
X70016Y82416D01*
X69538Y82464D01*
X69346Y82656D01*
X68544Y82988D01*
X67676D01*
X66875Y82656D01*
X66261Y82043D01*
X65929Y81241D01*
Y81046D01*
X65467Y80854D01*
X52960Y93362D01*
X52887Y93410D01*
X51456Y94632D01*
X49779Y95660D01*
X47961Y96413D01*
X46048Y96873D01*
X44172Y97020D01*
X44086Y97037D01*
X38050D01*
X37966Y97158D01*
X38213Y97679D01*
X38666Y97714D01*
X40579Y98173D01*
X42397Y98926D01*
X44074Y99954D01*
X45505Y101176D01*
X45578Y101225D01*
X48578Y104225D01*
X48645Y104325D01*
X49688Y105181D01*
X50982Y105873D01*
X52386Y106299D01*
X53729Y106431D01*
X53847Y106408D01*
X54292D01*
X54544Y106156D01*
X55342Y105695D01*
X56232Y105457D01*
X57154D01*
X58044Y105695D01*
X58842Y106156D01*
X59494Y106808D01*
X59954Y107606D01*
X60193Y108496D01*
Y109417D01*
X59954Y110308D01*
X59494Y111106D01*
X58842Y111757D01*
X58044Y112218D01*
X57154Y112457D01*
X56232D01*
X55342Y112218D01*
X54544Y111757D01*
X54292Y111506D01*
X53847D01*
X53761Y111489D01*
X51885Y111341D01*
X49972Y110882D01*
X48154Y110129D01*
X46477Y109101D01*
X45046Y107879D01*
X44973Y107830D01*
X41973Y104830D01*
X41906Y104730D01*
X40863Y103874D01*
X39569Y103182D01*
X38165Y102756D01*
X36822Y102624D01*
X36704Y102647D01*
X13878D01*
X13807Y102633D01*
X13140Y102721D01*
X12452Y103006D01*
X11861Y103460D01*
X11408Y104050D01*
X11366Y104151D01*
X11644Y104567D01*
X13043D01*
Y113654D01*
D02*
G37*
G36*
X110287Y78548D02*
Y74843D01*
X113993D01*
X113734Y75809D01*
X113136Y76845D01*
X112290Y77691D01*
X111254Y78289D01*
X110287Y78548D01*
D02*
G37*
G36*
X108713D02*
X107746Y78289D01*
X106710Y77691D01*
X105865Y76845D01*
X105266Y75809D01*
X105007Y74843D01*
X108713D01*
Y78548D01*
D02*
G37*
G36*
X113993Y73268D02*
X110287D01*
Y69563D01*
X111254Y69822D01*
X112290Y70420D01*
X113136Y71266D01*
X113734Y72302D01*
X113993Y73268D01*
D02*
G37*
G36*
X108713D02*
X105007D01*
X105266Y72302D01*
X105865Y71266D01*
X106710Y70420D01*
X107746Y69822D01*
X108713Y69563D01*
Y73268D01*
D02*
G37*
G36*
X110098Y68598D02*
X108902D01*
X107746Y68289D01*
X106710Y67691D01*
X105865Y66845D01*
X105266Y65809D01*
X105191Y65528D01*
X104094Y65265D01*
X102385Y64557D01*
X100808Y63591D01*
X99402Y62389D01*
X98201Y60983D01*
X97234Y59406D01*
X96527Y57697D01*
X96095Y55899D01*
X95950Y54055D01*
X95952D01*
Y30610D01*
X95970Y30517D01*
X95798Y29204D01*
X95255Y27894D01*
X94392Y26770D01*
X93267Y25906D01*
X91957Y25364D01*
X90644Y25191D01*
X90551Y25210D01*
X56826D01*
X56772Y25199D01*
X55532Y25321D01*
X54288Y25698D01*
X53141Y26311D01*
X52519Y26822D01*
X52159Y27159D01*
X52158Y27158D01*
X50951Y28085D01*
X49544Y28668D01*
X48034Y28867D01*
Y28851D01*
X44115D01*
X44050Y28916D01*
X43249Y29248D01*
X42381D01*
X41579Y28916D01*
X40966Y28302D01*
X40634Y27501D01*
Y26633D01*
X40966Y25831D01*
X41579Y25218D01*
X42381Y24886D01*
X43249D01*
X44050Y25218D01*
X44115Y25283D01*
X48034D01*
X48105Y25297D01*
X48906Y25137D01*
X49238Y24915D01*
X49614Y24614D01*
X49614Y24614D01*
X51159Y23345D01*
X52923Y22402D01*
X54836Y21822D01*
X56826Y21626D01*
Y21641D01*
X90551D01*
Y21632D01*
X92303Y21804D01*
X93987Y22315D01*
X95539Y23145D01*
X96900Y24262D01*
X98016Y25622D01*
X98846Y27174D01*
X99357Y28859D01*
X99529Y30610D01*
X99520D01*
Y54055D01*
X99505Y54136D01*
X99655Y55663D01*
X100124Y57208D01*
X100885Y58633D01*
X101910Y59882D01*
X103158Y60906D01*
X104583Y61668D01*
X105476Y61939D01*
X105865Y61265D01*
X106710Y60420D01*
X107746Y59821D01*
X108902Y59512D01*
X110098D01*
X111254Y59821D01*
X112290Y60420D01*
X113136Y61265D01*
X113734Y62301D01*
X114043Y63457D01*
Y64653D01*
X113734Y65809D01*
X113136Y66845D01*
X112290Y67691D01*
X111254Y68289D01*
X110098Y68598D01*
D02*
G37*
G36*
Y58598D02*
X108902D01*
X107746Y58289D01*
X106710Y57691D01*
X105865Y56845D01*
X105266Y55809D01*
X104957Y54653D01*
Y53457D01*
X105266Y52302D01*
X105865Y51266D01*
X106710Y50420D01*
X107746Y49821D01*
X108902Y49512D01*
X110098D01*
X111254Y49821D01*
X112290Y50420D01*
X113136Y51266D01*
X113734Y52302D01*
X114043Y53457D01*
Y54653D01*
X113734Y55809D01*
X113136Y56845D01*
X112290Y57691D01*
X111254Y58289D01*
X110098Y58598D01*
D02*
G37*
G36*
X114043Y48598D02*
X104957D01*
Y39512D01*
X107716D01*
Y32343D01*
X107732Y32262D01*
X107581Y30735D01*
X107113Y29190D01*
X106351Y27765D01*
X105378Y26579D01*
X105309Y26533D01*
X89756Y10980D01*
X89712Y10914D01*
X88547Y9958D01*
X87150Y9211D01*
X85633Y8751D01*
X84133Y8603D01*
X84055Y8619D01*
X47623D01*
X47558Y8684D01*
X46757Y9016D01*
X45889D01*
X45087Y8684D01*
X44474Y8070D01*
X44142Y7269D01*
Y6401D01*
X44474Y5599D01*
X45087Y4986D01*
X45889Y4654D01*
X46757D01*
X47558Y4986D01*
X47623Y5050D01*
X84055D01*
Y5049D01*
X85875Y5192D01*
X87650Y5618D01*
X89336Y6317D01*
X90893Y7271D01*
X92281Y8456D01*
X92280Y8457D01*
X92280Y8457D01*
X107833Y24010D01*
X107834Y24009D01*
X109035Y25415D01*
X110002Y26992D01*
X110710Y28701D01*
X111141Y30499D01*
X111286Y32343D01*
X111284D01*
Y39512D01*
X114043D01*
Y48598D01*
D02*
G37*
G36*
X19287Y13493D02*
Y9787D01*
X22993D01*
X22734Y10754D01*
X22136Y11790D01*
X21290Y12636D01*
X20254Y13234D01*
X19287Y13493D01*
D02*
G37*
G36*
X17713D02*
X16746Y13234D01*
X15710Y12636D01*
X14864Y11790D01*
X14266Y10754D01*
X14007Y9787D01*
X17713D01*
Y13493D01*
D02*
G37*
G36*
X22993Y8213D02*
X19287D01*
Y4507D01*
X20254Y4766D01*
X21290Y5364D01*
X22136Y6210D01*
X22734Y7246D01*
X22993Y8213D01*
D02*
G37*
G36*
X17713D02*
X14007D01*
X14266Y7246D01*
X14864Y6210D01*
X15710Y5364D01*
X16746Y4766D01*
X17713Y4507D01*
Y8213D01*
D02*
G37*
G36*
X114154Y13543D02*
X105067D01*
Y4457D01*
X114154D01*
Y13543D01*
D02*
G37*
G36*
X13043D02*
X3957D01*
Y4457D01*
X13043D01*
Y13543D01*
D02*
G37*
%LPD*%
D36*
X106571Y25272D02*
G03*
X109500Y32343I-7071J7071D01*
G01*
X84055Y6835D02*
G03*
X91018Y9719I0J9847D01*
G01*
X76083Y72835D02*
G03*
X68110Y80807I-7972J0D01*
G01*
X76083Y47646D02*
G03*
X79012Y40575I10000J0D01*
G01*
X50886Y25886D02*
G03*
X48034Y27067I-2851J-2851D01*
G01*
X50886Y25886D02*
G03*
X56826Y23425I5940J5940D01*
G01*
X90551D02*
G03*
X97736Y30610I0J7185D01*
G01*
X107736Y64055D02*
G03*
X97736Y54055I0J-10000D01*
G01*
X91018Y9719D02*
X106571Y25272D01*
X46323Y6835D02*
X84055D01*
X109500Y32343D02*
Y44055D01*
X69980Y57677D02*
Y72736D01*
X76083Y47646D02*
Y72835D01*
X79012Y40575D02*
X89961Y29626D01*
X42815Y27067D02*
X48034D01*
X56826Y23425D02*
X90551D01*
X97736Y30610D02*
Y54055D01*
X107736Y64055D02*
X109500D01*
D37*
X8500Y105476D02*
G03*
X13878Y100098I5378J0D01*
G01*
X36704D02*
G03*
X43775Y103027I0J10000D01*
G01*
X53847Y108957D02*
G03*
X46776Y106028I0J-10000D01*
G01*
X51157Y91559D02*
G03*
X44086Y94488I-7071J-7071D01*
G01*
X8500Y105476D02*
Y109110D01*
X13878Y100098D02*
X36704D01*
X8500Y109110D02*
X9000Y108610D01*
X43775Y103027D02*
X46776Y106028D01*
X53847Y108957D02*
X56693D01*
X51157Y91559D02*
X69980Y72736D01*
X35236Y94488D02*
X44086D01*
D38*
X109610Y9000D02*
D03*
X8500Y109110D02*
D03*
X109500Y44055D02*
D03*
D39*
X18500Y9000D02*
D03*
X109500Y74055D02*
D03*
Y64055D02*
D03*
Y54055D02*
D03*
D40*
X8500Y9000D02*
D03*
D41*
X69980Y57677D02*
D03*
X68110Y80807D02*
D03*
X89961Y29626D02*
D03*
X42815Y27067D02*
D03*
X46323Y6835D02*
D03*
D42*
X35236Y94488D02*
D03*
X69980Y72736D02*
D03*
X56693Y108957D02*
D03*
M02*
